<svg class="logoD" viewBox="459 1522 990 509" xmlns="http://www.w3.org/2000/svg" aria-label="FLOPS" role="img">
<path d="M688.521 1537.43C820.148 1528.77 933.957 1628.26 942.968 1759.87C951.978 1891.47 852.792 2005.55 721.213 2014.91C589.133 2024.31 474.528 1924.66 465.483 1792.56C456.438 1660.45 556.392 1546.12 688.521 1537.43Z" fill="#E4D0A5"/>
<path d="M483.492 1769.01C484.209 1713.63 508.328 1656.11 546.343 1615.99C585.999 1573.85 640.715 1549.12 698.546 1547.18C822.678 1544.01 922.307 1646.72 925.196 1768.99L846.292 1769.07C845.315 1769.07 843.797 1769.06 841.931 1769.04C832.792 1768.98 815.288 1768.86 811.873 1769.74C811.72 1771.87 812.365 1772.74 813.508 1774.27C813.855 1774.74 814.249 1775.27 814.68 1775.91C813.515 1775.8 811.257 1775.44 808.975 1775.07L808.943 1775.07C805.939 1774.59 802.903 1774.11 802.279 1774.18C801.711 1775.53 801.233 1776.62 800.762 1778.02C794.408 1756.17 793.924 1749.93 772.68 1740.06C771.909 1728.7 771.264 1717.32 770.745 1705.94C771.271 1706.2 771.846 1706.5 772.459 1706.81C777.114 1709.22 783.92 1712.73 787.656 1709.23L787.512 1705.02C790.574 1704.09 806.085 1704.61 816.363 1702.31C804.844 1694.27 799.329 1690.35 790.146 1679.9C791.029 1679.99 792.024 1680.11 793.09 1680.24C798.239 1680.87 805.032 1681.7 808.672 1679.36L808.502 1677.85C803.093 1673.96 786.276 1662.66 785.531 1656.08C789.655 1652.69 798.24 1655.2 801.64 1651.75C797.191 1645.08 787.775 1643.77 782.209 1631.92C783.873 1630.68 786.26 1630.87 788.613 1631.07C791.362 1631.29 794.064 1631.51 795.512 1629.44C795.143 1629.11 794.592 1628.63 793.91 1628.04L793.896 1628.03C789.184 1623.94 778.287 1614.48 778.301 1611.77C781.275 1611.42 782.364 1611.43 785.158 1610.27C785.394 1608.02 780.968 1602.18 777.054 1597.02C774.699 1593.92 772.53 1591.06 771.674 1589.37C768.543 1583.2 766.468 1576.84 764.19 1570.39C758.094 1588.16 755.495 1595.03 742.201 1608.42C743.391 1610.52 747.089 1610.2 750.79 1611.32C749.876 1618.69 734.612 1625.39 733.438 1630.58C735.259 1631.68 737.879 1631.53 740.402 1631.39C742.824 1631.26 745.156 1631.13 746.604 1632.11C743.807 1638.64 732.071 1645.74 726.727 1651.49C727.964 1653.16 729.411 1653.2 731.619 1653.27C732.703 1653.31 733.97 1653.35 735.486 1653.59L736.764 1655.79C739.707 1655.73 744.207 1652.87 747.06 1651.33C738.445 1665.23 731.866 1669.66 718.795 1678.98C726.017 1680.47 734.189 1679.53 737.062 1680.62L737.049 1682.45C732.384 1688.77 720.082 1697 713.557 1701.57C724.24 1704.32 731.501 1705.11 742.431 1704.77C743.045 1706.81 742.552 1707.31 741.97 1707.91L741.969 1707.91C741.425 1708.47 740.804 1709.1 740.939 1711.14C745.513 1712.26 751.503 1709.25 756.213 1706.88L756.215 1706.87C756.917 1706.52 757.591 1706.18 758.227 1705.87L758.093 1724.64C751.513 1720.4 750.135 1719.8 742.878 1717.11C743.393 1723.93 744.218 1730.55 745.033 1737.34C720.162 1725.22 710.626 1727.88 685.604 1735.75C671.152 1731.13 666.153 1729.97 651.148 1731.95L650.07 1709.99C650.611 1710.24 651.192 1710.51 651.802 1710.8L651.804 1710.8C655.982 1712.76 661.548 1715.36 665.492 1714.6C666.059 1713.04 665.882 1712.13 665.606 1710.72V1710.72C665.555 1710.45 665.5 1710.17 665.446 1709.87L665.305 1709.09L667.061 1708.2C667.534 1708.39 668.01 1708.58 668.488 1708.75C674.403 1710.9 685.674 1708.14 690.975 1705.57C689.808 1703.05 674.824 1691.73 669.67 1685.36L689.191 1685.1C684.162 1680.52 665.58 1667.99 665.262 1661.19L669.305 1661.95C672.145 1660.81 677.673 1658.97 679.546 1656.92C670.923 1649.76 665.168 1645.94 658.787 1636.62C663.301 1637.53 668.401 1638.14 672.872 1636.93L673.557 1635.52C669.12 1631.49 660.664 1624.33 657.498 1619.83C658.884 1616.26 662.925 1619.54 665.636 1616.08C651.44 1599.64 650.91 1597.86 643.253 1577.29C640.343 1587.68 636.927 1598.2 630.188 1606.87C627.641 1610.15 623.651 1612.7 621.462 1615.92C623.332 1617.41 625.236 1617.5 627.669 1617.61C628.411 1617.64 629.202 1617.68 630.056 1617.76L630.72 1618.66C627.026 1624.07 615.504 1633.5 614.626 1636.34C616.352 1637.21 618.398 1637.04 620.779 1636.84H620.783C622.388 1636.7 624.143 1636.55 626.056 1636.7L626.756 1638.2C623.043 1645.28 611.845 1651.97 609.143 1658.58L610 1659.89C615.037 1659.07 617.967 1660.18 622.619 1662.14C619.495 1670.36 605.316 1679.3 598.152 1684.25C605.326 1685.36 611.634 1685.32 618.809 1684.54C613.517 1690.89 608.4 1696.4 601.549 1701.03C599.267 1702.57 597.279 1703.39 596.202 1705.86C599.382 1708.82 612.559 1708.71 619.64 1708.66C620.743 1708.65 621.699 1708.64 622.445 1708.65L623.157 1709.47C621.831 1711.73 621.176 1712.58 620.515 1715.09C624.65 1716.23 631.62 1712.98 636.358 1710.77L636.366 1710.77C636.977 1710.49 637.55 1710.22 638.076 1709.98C637.518 1718.61 637.063 1727.25 636.713 1735.89C608.665 1749.21 618.14 1764.11 602.678 1784.24C594.385 1795.04 580.204 1798.79 567.797 1813.58C583.047 1818.77 595.07 1818.17 606.686 1817.6C614.755 1817.2 622.629 1816.81 631.252 1818.38C643.815 1820.66 650.627 1823.65 656.761 1826.33C665.799 1830.29 673.365 1833.61 695.682 1833.09C693.221 1837.64 691.467 1842.05 689.488 1846.82C672.15 1847.35 663.072 1843.61 653.475 1839.65C646.716 1836.87 639.698 1833.97 629.355 1832.39C622.949 1831.61 614.865 1831.73 606.342 1831.85H606.336C590.473 1832.07 573.092 1832.31 562.178 1826.86C541.105 1816.35 566.218 1797.84 581.232 1786.77L581.234 1786.77C584.784 1784.15 587.769 1781.95 589.445 1780.37C592.231 1777.74 595.071 1772.29 596.859 1769.07L483.492 1769.01Z" fill="#2B391B"/>
<path d="M751.557 1747.25C752.273 1738.87 751.842 1735.4 749.759 1727.24C758.429 1734.99 764.642 1740.58 768.5 1752.02L768.848 1752.86C771.686 1759.8 770.577 1768.51 773.669 1772.14C779.067 1768.12 777.991 1759.95 777.199 1753.94L777.198 1753.94C777.154 1753.6 777.11 1753.28 777.069 1752.96C789.215 1771.68 795.354 1787.08 779.689 1806.54C781.918 1805.77 784.086 1804.91 786.209 1804.07C795.841 1800.26 804.555 1796.81 813.869 1803.73L823.978 1796.19L814.022 1789.34C808.393 1786.22 804.09 1783.6 800.758 1778.02C801.229 1776.62 801.707 1775.53 802.275 1774.18C802.899 1774.11 805.935 1774.59 808.939 1775.07L808.971 1775.08C811.253 1775.44 813.511 1775.8 814.676 1775.91C817.026 1777.98 820.377 1780.69 822.22 1783.09C847.448 1801.25 837.223 1806.38 827.51 1811.25C822.603 1813.71 817.826 1816.1 817.82 1820.08C816.145 1828.36 807.094 1830.06 799.986 1832.64C804.614 1833.72 816.755 1835.79 818.593 1840.72C833.444 1880.61 789.404 1863.09 765.028 1853.39C760.65 1851.65 756.906 1850.16 754.251 1849.3C741.709 1853.76 729.933 1859.18 716.846 1863.53C700.376 1869 687.913 1853.35 696.611 1838.79C700.31 1832.6 706.231 1832.13 712.935 1830.66C710.662 1829.9 708.399 1829.11 706.146 1828.29C690.183 1822.42 695.141 1806.34 706.96 1799.36C711.309 1796.8 722.478 1801.81 729.013 1804.74C730.012 1805.19 730.903 1805.59 731.645 1805.91C728.749 1801.25 728.056 1800.06 726.382 1794.89C723.199 1780.38 728.804 1771.17 736.044 1759.28L736.045 1759.28L736.716 1758.18L737.259 1772.11C744.05 1763.31 747.721 1757.7 751.557 1747.25Z" fill="#2B391B"/>
<path d="M775.756 1813.78C776.52 1813.51 777.644 1813.07 779.024 1812.53C789.049 1808.57 812.606 1799.29 810.138 1813.24C810.108 1813.58 810.074 1813.9 810.041 1814.22C809.918 1815.37 809.811 1816.38 810.011 1817.61L810.717 1821.46C802.13 1822.35 793.19 1824.56 785.007 1827.29C782.592 1828.16 775.224 1831.06 773.131 1831.58L767.586 1830.52C763.517 1829.99 754.352 1833.76 744.991 1837.61L744.987 1837.62L744.985 1837.62C735.651 1841.46 726.123 1845.38 721.261 1845.19C720.428 1844.22 719.695 1843.36 719.062 1842.61L718.152 1839.75C717.34 1838.76 717.05 1838.55 716.927 1838.27C716.808 1838 716.847 1837.65 716.719 1836.46C721.319 1831.72 764.74 1818.5 775.756 1813.78Z" fill="#E4D0A5"/>
<path d="M783.221 1824.42L783.18 1823.68C790.92 1819.08 801.53 1815.82 810.134 1813.24C810.104 1813.58 810.07 1813.91 810.037 1814.22C809.914 1815.37 809.807 1816.38 810.007 1817.61L810.713 1821.46C802.126 1822.35 793.186 1824.56 785.003 1827.29L783.221 1824.42Z" fill="#2B391B"/>
<path d="M810.013 1817.61L810.719 1821.46C802.132 1822.35 793.192 1824.56 785.009 1827.29L783.227 1824.41C792.734 1822.63 800.713 1820.29 810.013 1817.61Z" fill="#E4D0A5"/>
<path d="M718.148 1839.75C718.723 1839.54 719.485 1839.27 720.395 1838.94L720.408 1838.93C728.578 1835.96 748.636 1828.68 752.322 1829.41C747.015 1833.07 726.122 1839.33 719.058 1842.61L718.148 1839.75Z" fill="#2B391B"/>
<path d="M804.212 1808.18L804.717 1808.67C802.857 1811.84 785.646 1817.3 781.414 1818.82L780.93 1818.63L781.322 1817.63C788.706 1813.69 796.367 1811.08 804.212 1808.18Z" fill="#2B391B"/>
<path d="M740.129 1789.81C743.268 1790.89 742.125 1790.25 744.567 1793.34C747.949 1789.89 754.33 1779.89 756.596 1775.44C760.483 1784.22 762.667 1788.89 764.053 1798.6C766.183 1795.38 767.848 1791.83 771.217 1790.52C778.484 1793.17 772.576 1804.14 769.252 1808.2C752.112 1818.98 736.981 1810.75 740.129 1789.81Z" fill="#E4D0A5"/>
<path d="M708.091 1804.86C714.456 1804.44 741.112 1813.37 743.988 1818.23L740.745 1819.49L727.805 1822.53C720.769 1819.41 709.555 1816.61 705.195 1811.11C705.136 1808.44 705.427 1808.09 706.676 1806.61C707.054 1806.16 707.52 1805.61 708.091 1804.86Z" fill="#E4D0A5"/>
<path d="M711.75 1809.09C717.895 1810.42 727.548 1815.25 732.631 1818.99C727.068 1818.87 716.111 1812.76 711.75 1809.09Z" fill="#2B391B"/>
<path d="M806.521 1840.86C821.695 1841.25 818.646 1855.64 809.226 1863.05C794.162 1860.37 795.911 1848.83 806.521 1840.86Z" fill="#E4D0A5"/>
<path d="M808.238 1843.88C818.652 1847.4 814.322 1856.11 807.524 1861.02C797.744 1855.38 799.457 1849.06 808.238 1843.88Z" fill="#2B391B"/>
<path d="M805.719 1847.46C807.507 1846.66 809.598 1846.97 811.072 1848.26C812.545 1849.56 813.131 1851.59 812.571 1853.46C812.011 1855.34 810.409 1856.72 808.469 1856.99C805.997 1857.34 803.646 1855.82 802.954 1853.42C802.263 1851.02 803.442 1848.48 805.719 1847.46Z" fill="#E4D0A5"/>
<path d="M703.659 1838.67C717.777 1839.91 721.683 1850.24 711.869 1860.32C698.373 1860.54 694.979 1847.64 703.659 1838.67Z" fill="#E4D0A5"/>
<path d="M704.919 1841.6C716.155 1842.49 716.708 1850.22 710.588 1857.92C700.892 1857.37 699.482 1848.74 704.919 1841.6Z" fill="#2B391B"/>
<path d="M705.373 1843.45C709.664 1844.36 710.515 1845.21 712.23 1848.91C712.107 1852.46 711.81 1852.86 709.774 1855.81C706.09 1854.91 705.819 1854.14 704.077 1851.51C703.552 1847.57 703.806 1847 705.325 1843.56L705.326 1843.55L705.373 1843.45Z" fill="#E4D0A5"/>
<path d="M785.213 1839.09C789.335 1836.71 795.321 1835.77 798.482 1839.95C797.655 1841.91 797.77 1841.93 795.96 1843.25L793.838 1845.28L794.576 1847.96L793.561 1849.09L790.913 1848.73L786.886 1851.58C783.184 1852.18 770.723 1847.61 768.961 1843.72C770.971 1843.1 773.014 1843.18 775.121 1843.26H775.125C775.578 1843.28 776.035 1843.3 776.494 1843.31L781.135 1840.59C782.627 1839.56 783.476 1839.5 785.213 1839.09Z" fill="#E4D0A5"/>
<path d="M776.494 1843.31C782.026 1844.76 785.724 1846.47 790.913 1848.73L786.886 1851.58C783.184 1852.18 770.723 1847.61 768.961 1843.72C770.971 1843.1 773.014 1843.18 775.121 1843.26H775.125C775.578 1843.28 776.035 1843.3 776.494 1843.31Z" fill="#2B391B"/>
<path d="M768.961 1843.72C773.655 1845.2 783.286 1848.39 786.886 1851.58C783.184 1852.18 770.723 1847.61 768.961 1843.72Z" fill="#E4D0A5"/>
<path d="M785.211 1839.09C789.333 1836.71 795.319 1835.77 798.48 1839.95C797.653 1841.91 797.768 1841.93 795.958 1843.25L785.211 1839.09Z" fill="#E4D0A5"/>
<path d="M781.133 1840.59C782.625 1839.56 783.474 1839.49 785.211 1839.09L795.958 1843.25L793.836 1845.27C790.158 1844.18 784.859 1841.99 781.133 1840.59Z" fill="#2B391B"/>
<path d="M767.585 1830.52L773.13 1831.58C759.066 1838.72 743.652 1845.46 728.289 1849.11C739.097 1843.34 759.366 1836.28 767.585 1830.52Z" fill="#E4D0A5"/>
<path d="M701.711 1817.01C706.688 1817.05 716.84 1820.54 719.613 1824.76C714.221 1823.73 704.706 1821.77 701.711 1817.01Z" fill="#E4D0A5"/>
<path d="M553.742 1885.62C615.849 1922.89 660.775 1933.38 732.688 1929.5C734.47 1930.75 736.229 1931.66 737.051 1933.61C678.677 1949.35 594.712 1932.15 553.742 1885.62Z" fill="#2B391B"/>
<path d="M801.187 1883.01C801.948 1882.85 802.229 1882.79 802.504 1882.81C802.818 1882.83 803.123 1882.97 804.122 1883.19L803.936 1884.69C777.258 1911.45 711.362 1914.57 676.109 1907.43C672.241 1906.35 667.511 1904.61 663.625 1903.3C720.586 1901.71 746.136 1901.84 801.08 1883.04L801.187 1883.01Z" fill="#2B391B"/>
<path d="M771.604 1974.32L774.762 1974.23L774.832 1975.39C753.19 1994.63 699.543 1994.89 672.764 1987.72C669.267 1986.74 662.728 1983.82 659.141 1982.35C667.685 1981.78 676.618 1982.19 685.616 1982.61L685.646 1982.62C693.941 1983 702.291 1983.39 710.44 1983.02C731.647 1982.04 750.82 1977.86 771.604 1974.32Z" fill="#2B391B"/>
<path d="M707.023 1959.19C734.556 1953.76 752.955 1950.05 780.283 1942.48L781.098 1943.84L780.59 1945.21C785.44 1948.26 785.446 1948.26 785.976 1948.13C786.331 1948.05 786.918 1947.91 789.33 1948.59C768.047 1959.37 730.639 1963.99 707.023 1959.19Z" fill="#2B391B"/>
<path d="M524.871 1882.38C539.134 1902.78 548.138 1911.99 567.91 1927.61L567.215 1927.76C566.961 1927.81 566.731 1927.86 566.519 1927.91H566.517C564.664 1928.3 564.232 1928.4 562.096 1927.94C562.051 1929.03 562.044 1930.81 561.851 1931.81C544.657 1923.64 524.491 1901.43 516.328 1884.35C518.65 1885.18 519.828 1885.74 522.04 1886.85C524.386 1885.66 523.678 1885.8 524.871 1882.38Z" fill="#2B391B"/>
<path d="M611.383 1942.37C623.854 1943.99 674.071 1955.09 686.083 1959.2L686.422 1960.94C670.745 1964.15 617.661 1956.95 611.383 1942.37Z" fill="#2B391B"/>
<path d="M890.775 1865.39C891.976 1866.73 892.266 1867.23 892.698 1867.47C893.133 1867.71 893.712 1867.69 895.506 1868.01C897.905 1866.98 898.371 1866.8 900.464 1865.28C891.809 1889.08 876.318 1903.45 855.109 1915.95C871.255 1898.84 880.098 1886.1 890.775 1865.39Z" fill="#2B391B"/>
<path d="M532.906 1839.45C537.936 1841.33 556.088 1859.27 561.806 1864.1C569.428 1870.53 586.819 1881.76 592.299 1888.19C590.813 1887.82 589.346 1887.39 587.905 1886.88C566.65 1879.55 542.87 1859.69 532.906 1839.45Z" fill="#2B391B"/>
<path d="M584.28 1957.4C595.001 1961.26 626.38 1974.01 635.978 1979.33C615.745 1980.38 597.187 1974.18 581.008 1962.09C582.555 1961.78 583.619 1961.37 585.086 1960.86L584.28 1957.4Z" fill="#2B391B"/>
<path d="M499.578 1829.44C505.109 1843.31 510.25 1855.1 516.419 1868.72C519.457 1873.33 522.062 1877.65 524.868 1882.38C523.675 1885.8 524.383 1885.66 522.037 1886.84C519.825 1885.74 518.647 1885.18 516.325 1884.35C514.137 1882.19 510.719 1873.98 509.561 1871C502.43 1855.51 500.929 1846.38 499.578 1829.44Z" fill="#2B391B"/>
<path d="M499.578 1829.44C505.109 1843.31 510.25 1855.1 516.419 1868.72C513.633 1867.26 512.213 1865.09 510.245 1862.7C509.391 1863.51 509.494 1867.96 509.545 1870.17V1870.18C509.553 1870.51 509.559 1870.79 509.561 1871C502.43 1855.51 500.929 1846.38 499.578 1829.44Z" fill="#2B391B"/>
<path d="M780.289 1942.48C796.422 1936.07 812.515 1929.55 828.566 1922.93C818.296 1932.6 803.08 1944.52 789.336 1948.59C786.924 1947.91 786.337 1948.05 785.982 1948.13C785.452 1948.26 785.446 1948.26 780.596 1945.21L781.104 1943.84L780.289 1942.48Z" fill="#2B391B"/>
<path d="M608.977 1883.93C609.372 1883.99 609.766 1884.07 610.159 1884.14C618.407 1885.7 642.79 1893.26 647.487 1900.08C634.435 1902.68 614.776 1896.98 608.977 1883.93Z" fill="#2B391B"/>
<path d="M774.422 1925.05C781.335 1919.94 806.209 1907.55 815.59 1902.34C814.822 1903.97 814.474 1904.63 814.013 1906.43C816.089 1908.75 817.632 1908.64 820.857 1908.4L820.996 1908.39C807.924 1917.79 789.889 1922.13 774.422 1925.05Z" fill="#2B391B"/>
<path d="M842.384 1940.46C843.911 1940.22 845.066 1939.95 846.028 1939.72L846.03 1939.72C848.409 1939.15 849.611 1938.86 852.373 1940.12L853.812 1942.05C848.604 1946.42 840.044 1953.32 833.92 1956.28C831.978 1956.29 830.625 1956.52 829.565 1956.71C826.935 1957.18 826.111 1957.32 822.578 1952.78C829.135 1948.57 835.627 1944.33 842.384 1940.46Z" fill="#2B391B"/>
<path d="M858.788 1865.29C858.66 1868.62 857.398 1870.02 855.595 1872.63C857.906 1873.35 858.251 1873.17 858.791 1872.88C859.147 1872.7 859.588 1872.47 860.733 1872.42C855.471 1880 846.101 1890.37 838.523 1895.7C838.75 1894.46 838.882 1893.34 839.038 1892.09C836.929 1890.73 835.356 1890.96 832.954 1891.32C832.202 1891.43 831.37 1891.55 830.414 1891.64C840.892 1882.99 849.304 1874.97 858.788 1865.29Z" fill="#2B391B"/>
<path d="M900.32 1842.52C903.507 1841.28 904.331 1841.27 907.765 1840.98C906.283 1847.89 904.061 1859.3 900.462 1865.28C898.369 1866.8 897.903 1866.98 895.504 1868.01C893.71 1867.69 893.131 1867.71 892.696 1867.47C892.264 1867.23 891.974 1866.73 890.773 1865.39C894.073 1858.45 897.376 1849.76 900.32 1842.52Z" fill="#2B391B"/>
<path d="M830.41 1891.64C831.366 1891.55 832.198 1891.43 832.95 1891.32C835.352 1890.96 836.925 1890.73 839.034 1892.09C838.878 1893.34 838.746 1894.46 838.519 1895.7C835.306 1899.04 825.128 1906.77 820.991 1908.39L820.852 1908.4C817.627 1908.64 816.084 1908.75 814.008 1906.43C814.469 1904.63 814.817 1903.97 815.585 1902.34C816.552 1901.19 828.432 1893.03 830.41 1891.64Z" fill="#2B391B"/>
<path d="M793.766 1972.56C803.835 1964.95 811.875 1959.52 822.581 1952.78C826.114 1957.32 826.938 1957.18 829.568 1956.71C830.628 1956.52 831.981 1956.29 833.923 1956.28C820.108 1965.05 809.518 1968.9 793.766 1972.56Z" fill="#2B391B"/>
<path d="M858.787 1865.29C865.579 1856.36 872.266 1847.35 878.847 1838.26C874.725 1849.21 868.761 1863.66 860.732 1872.42C859.587 1872.47 859.146 1872.7 858.79 1872.88C858.25 1873.17 857.905 1873.35 855.594 1872.63C857.397 1870.02 858.659 1868.62 858.787 1865.29Z" fill="#2B391B"/>
<path d="M842.391 1940.46C852.075 1933.57 861.852 1926.81 871.719 1920.18C865.74 1929.45 862.036 1934.48 853.819 1942.05L852.38 1940.12C849.618 1938.86 848.416 1939.15 846.037 1939.72L846.035 1939.72C845.073 1939.95 843.918 1940.22 842.391 1940.46Z" fill="#2B391B"/>
<path d="M567.911 1927.61L590.423 1942.42C583.145 1940.65 567.72 1936.35 561.852 1931.81C562.045 1930.81 562.052 1929.03 562.097 1927.94C564.233 1928.4 564.665 1928.3 566.518 1927.91H566.52C566.732 1927.86 566.962 1927.81 567.216 1927.76L567.911 1927.61Z" fill="#2B391B"/>
<path d="M854.555 1838.85C859.658 1845.64 846.021 1856.04 841.468 1859.12L840.586 1857.65C843.948 1850.22 849.077 1844.73 854.555 1838.85Z" fill="#2B391B"/>
<path d="M908.978 1817.72C909.168 1827.2 909.117 1831.46 907.765 1840.98C904.331 1841.27 903.507 1841.28 900.32 1842.52C902.983 1834.68 905.927 1825.28 908.978 1817.72Z" fill="#2B391B"/>
<path d="M568.281 1951.29C574.344 1953.33 578.383 1954.86 584.28 1957.4L585.086 1960.86C583.619 1961.37 582.555 1961.78 581.008 1962.09C576.836 1958.77 572.374 1954.79 568.281 1951.29Z" fill="#2B391B"/>
<path d="M732.688 1929.5C739.345 1928.88 748.224 1927.84 754.729 1927.72C749.011 1929.84 742.963 1932.28 737.05 1933.61C736.228 1931.66 734.469 1930.75 732.688 1929.5Z" fill="#2B391B"/>
<path d="M1200.58 1718.21C1225.42 1716.6 1243.26 1725.51 1248.53 1751.45C1254.56 1781.1 1253.13 1826.63 1217.27 1834.87C1185.14 1838.05 1170.45 1819.92 1167.42 1789.01C1164.71 1761.41 1168.37 1725.98 1200.58 1718.21Z" fill="#E4D0A5"/>
<path d="M1206.81 1751.62C1215.87 1753.76 1217.32 1761.85 1217.64 1770.37C1218.02 1780.58 1218.21 1793.56 1211.18 1801.59C1195.18 1798.63 1198.92 1761.35 1206.81 1751.62Z" fill="#2B391B"/>
<path d="M1293.2 1799.16C1293.17 1801.03 1293.23 1803.55 1293.3 1806.35C1293.51 1814.62 1293.77 1825.42 1291.99 1829.81C1284.61 1837.99 1260.17 1837 1260.58 1823.02C1261.1 1805.75 1261 1788.42 1260.9 1771.09C1260.82 1757.53 1260.74 1743.98 1260.96 1730.47C1260.58 1721.5 1265.94 1719.1 1274.33 1718.85C1307.81 1717.85 1334.74 1717.77 1338.19 1758.05V1759.25C1338.18 1760.78 1338.17 1762.76 1338.32 1763.81C1333.75 1792.37 1320.3 1799.05 1293.2 1799.16Z" fill="#E4D0A5"/>
<path d="M1293.17 1746.68C1308.79 1747.41 1308.62 1758.88 1303.09 1770C1302.74 1770.14 1302.41 1770.27 1302.1 1770.4C1299.76 1771.35 1298.41 1771.9 1295.52 1771.46C1292.15 1767.73 1292.58 1759.45 1292.95 1752.32V1752.26C1293.06 1750.27 1293.16 1748.37 1293.17 1746.68Z" fill="#2B391B"/>
<path d="M1345.29 1750.89C1348.97 1726.65 1364 1713.47 1389.17 1717.69C1399.2 1719.27 1408.13 1724.9 1413.88 1733.27C1427.44 1753.05 1408.91 1755.53 1394.51 1757.45C1393.05 1757.65 1391.64 1757.84 1390.31 1758.04C1389.43 1754.19 1389.04 1750.27 1386.27 1747.63C1384.33 1746.73 1383.81 1746.34 1383.25 1746.27C1382.89 1746.22 1382.52 1746.3 1381.77 1746.47C1381.43 1746.55 1381 1746.65 1380.46 1746.76C1379.24 1748.18 1378.78 1748.57 1378.57 1749.07C1378.34 1749.6 1378.4 1750.25 1378.16 1752.35C1379.61 1757.3 1386.1 1761.11 1393.57 1765.5L1393.58 1765.5C1409.78 1775.02 1430.55 1787.21 1414.2 1819.51C1410.66 1826.52 1403.82 1831.89 1396.04 1833.99C1384.71 1836.86 1370.36 1836.19 1360.05 1830.44C1352.82 1826.41 1346.11 1818.33 1344.1 1810.3C1341.03 1797.96 1352.48 1796.25 1361.12 1794.96C1361.85 1794.85 1362.56 1794.75 1363.24 1794.64C1366.39 1794.12 1369.55 1793.7 1372.72 1793.39C1374.3 1800.19 1374.44 1806.22 1382.56 1806.54C1385.65 1804.64 1384.6 1805.69 1386.37 1802.07C1386.17 1798.82 1386.2 1797.03 1383.2 1794.63C1367.12 1781.81 1357.82 1784.83 1347.28 1764.9C1346.42 1760.47 1345.88 1755.41 1345.29 1750.89Z" fill="#E4D0A5"/>
<path d="M1033.14 1719.19C1034.61 1719.18 1036.82 1719.13 1039.53 1719.07C1054.37 1718.76 1084.23 1718.12 1089.1 1720.89C1092.13 1724.54 1092.2 1726.55 1092.31 1729.66C1092.35 1730.68 1092.39 1731.82 1092.54 1733.17C1094.53 1751.22 1081.47 1750.4 1067.94 1749.55C1065.59 1749.4 1063.22 1749.25 1060.91 1749.2L1061.05 1765.07C1062.07 1765.06 1063.21 1765.02 1064.43 1764.98C1070.49 1764.8 1078.49 1764.56 1082.72 1766.32C1088.69 1772.21 1088.58 1784.92 1082.69 1790.75C1079.52 1793.88 1075.41 1793.67 1071.32 1793.47C1070.61 1793.43 1069.9 1793.39 1069.2 1793.37C1068.73 1793.35 1068.29 1793.31 1067.87 1793.27C1065.73 1793.09 1064.13 1792.96 1062.27 1794.27C1059.75 1799.05 1060.41 1805.8 1061.05 1812.38V1812.41C1062.16 1823.71 1063.22 1834.54 1048.13 1834.16C1046.9 1834.13 1045.57 1834.16 1044.2 1834.19C1036.74 1834.37 1028.08 1834.59 1028.11 1824.71C1028.14 1814.13 1028.09 1803.54 1028.04 1792.94V1792.89V1792.89C1027.93 1770.18 1027.82 1747.46 1028.49 1724.8C1028.56 1722.32 1031.35 1720.48 1033.14 1719.19Z" fill="#E4D0A5"/>
<path d="M1104.73 1718.99C1105.71 1718.96 1106.84 1718.9 1108.08 1718.84H1108.09C1115.46 1718.48 1126.42 1717.93 1130.44 1721.63C1133.78 1728.88 1133.17 1770.54 1132.86 1792.07V1792.32C1132.8 1796.6 1132.74 1800.06 1132.74 1802.27C1134.1 1802.3 1136.09 1802.21 1138.4 1802.1L1138.45 1802.1H1138.46C1146.25 1801.75 1157.59 1801.23 1160.35 1804.47C1165.62 1810.66 1165.22 1827.21 1159.19 1833.49C1148.49 1833.93 1112.64 1834.95 1104.44 1832.04C1101.01 1828.7 1100.66 1822.03 1100.69 1817.28C1100.74 1807.34 1100.68 1797.38 1100.61 1787.42C1100.47 1766.37 1100.33 1745.29 1101.33 1724.34C1101.42 1722.52 1103.52 1720.25 1104.73 1718.99Z" fill="#E4D0A5"/>
</svg>